<?xml version="1.0" standalone="no"?>
<!DOCTYPE svg PUBLIC "-//W3C//DTD SVG 20010904//EN"
 "http://www.w3.org/TR/2001/REC-SVG-20010904/DTD/svg10.dtd">
<svg version="1.0" xmlns="http://www.w3.org/2000/svg"
 width="64.000000pt" height="64.000000pt" viewBox="0 0 64.000000 64.000000"
 preserveAspectRatio="xMidYMid meet">

<g transform="translate(0.000000,64.000000) scale(0.100000,-0.100000)"
fill="#000000" stroke="none">
<path d="M132 568 c-17 -17 -17 -479 0 -496 17 -17 359 -17 376 0 9 9 12 69
12 207 l0 195 -55 53 -55 53 -133 0 c-90 0 -137 -4 -145 -12z m268 -46 c0 -48
14 -62 62 -62 l38 0 0 -170 0 -170 -180 0 -180 0 0 220 0 220 130 0 130 0 0
-38z m43 5 c40 -42 41 -47 8 -47 -28 0 -31 3 -31 30 0 33 5 37 23 17z m57
-437 c0 -6 -67 -10 -180 -10 -113 0 -180 4 -180 10 0 6 67 10 180 10 113 0
180 -4 180 -10z"/>
</g>
</svg>
