<?xml version="1.0" standalone="no"?>
<!DOCTYPE svg PUBLIC "-//W3C//DTD SVG 20010904//EN"
 "http://www.w3.org/TR/2001/REC-SVG-20010904/DTD/svg10.dtd">
<svg version="1.0" xmlns="http://www.w3.org/2000/svg"
 width="64.000000pt" height="64.000000pt" viewBox="0 0 64.000000 64.000000"
 preserveAspectRatio="xMidYMid meet">

<g transform="translate(0.000000,64.000000) scale(0.100000,-0.100000)"
fill="#000000" stroke="none">
<path d="M172 467 c-72 -73 -132 -139 -132 -147 0 -20 260 -280 280 -280 20 0
280 261 280 280 0 20 -261 280 -280 280 -9 0 -75 -60 -148 -133z m268 -32
l115 -115 -118 -118 -117 -117 -117 118 -118 117 82 82 c70 70 84 80 97 69 9
-8 16 -22 16 -32 0 -10 5 -21 10 -24 15 -9 13 -171 -2 -195 -17 -26 0 -55 32
-55 32 0 49 29 32 55 -7 11 -12 53 -12 97 l0 77 30 -29 c17 -16 30 -36 30 -46
0 -39 52 -51 74 -16 14 21 -2 50 -30 55 -25 5 -84 62 -84 82 0 21 -20 40 -41
40 -9 0 -22 7 -29 15 -10 13 -10 19 5 35 10 11 21 20 24 20 4 0 58 -52 121
-115z"/>
</g>
</svg>
