<?xml version="1.0" standalone="no"?>
<!DOCTYPE svg PUBLIC "-//W3C//DTD SVG 20010904//EN"
 "http://www.w3.org/TR/2001/REC-SVG-20010904/DTD/svg10.dtd">
<svg version="1.0" xmlns="http://www.w3.org/2000/svg"
 width="64.000000pt" height="64.000000pt" viewBox="0 0 64.000000 64.000000"
 preserveAspectRatio="xMidYMid meet">

<g transform="translate(0.000000,64.000000) scale(0.100000,-0.100000)"
fill="#000000" stroke="none">
<path d="M110 540 c-19 -19 -20 -33 -20 -220 0 -187 1 -201 20 -220 19 -19 33
-20 214 -20 166 0 197 2 211 16 14 14 16 44 13 231 -2 177 -6 215 -18 223 -8
5 -102 10 -207 10 -180 0 -194 -1 -213 -20z m420 -220 l0 -220 -207 2 -208 3
-3 205 c-1 112 0 210 2 217 4 10 53 13 211 13 l205 0 0 -220z"/>
</g>
</svg>
