<?xml version="1.0" standalone="no"?>
<!DOCTYPE svg PUBLIC "-//W3C//DTD SVG 20010904//EN"
 "http://www.w3.org/TR/2001/REC-SVG-20010904/DTD/svg10.dtd">
<svg version="1.0" xmlns="http://www.w3.org/2000/svg"
 width="64.000000pt" height="64.000000pt" viewBox="0 0 64.000000 64.000000"
 preserveAspectRatio="xMidYMid meet">

<g transform="translate(0.000000,64.000000) scale(0.100000,-0.100000)"
fill="#000000" stroke="none">
<path d="M210 544 c-140 -82 -130 -65 -130 -224 0 -94 4 -141 13 -152 20 -26
80 -58 109 -58 49 0 58 29 58 177 0 126 -1 133 -20 133 -18 0 -20 -8 -22 -132
-3 -148 -7 -154 -65 -118 l-33 20 0 128 0 127 100 59 100 58 100 -59 101 -58
-3 -130 -3 -130 -97 -53 c-80 -43 -101 -51 -117 -43 -21 12 -51 5 -51 -10 0
-5 16 -17 36 -26 l36 -18 95 50 c149 79 143 69 143 233 0 120 -2 141 -17 155
-30 26 -206 127 -222 127 -9 0 -59 -25 -111 -56z"/>
<path d="M330 422 c-14 -5 -31 -20 -39 -34 -13 -23 -13 -29 2 -52 13 -19 28
-27 67 -32 93 -12 109 -54 20 -54 -39 0 -52 4 -60 20 -6 11 -17 20 -25 20 -22
0 -18 -37 5 -60 34 -34 147 -25 172 14 27 40 -9 82 -78 93 -22 3 -48 10 -58
16 -19 9 -19 10 -1 23 27 20 62 17 85 -6 26 -26 50 -26 50 0 0 38 -82 69 -140
52z"/>
</g>
</svg>
