<?xml version="1.0" standalone="no"?>
<!DOCTYPE svg PUBLIC "-//W3C//DTD SVG 20010904//EN"
 "http://www.w3.org/TR/2001/REC-SVG-20010904/DTD/svg10.dtd">
<svg version="1.0" xmlns="http://www.w3.org/2000/svg"
 width="64.000000pt" height="64.000000pt" viewBox="0 0 64.000000 64.000000"
 preserveAspectRatio="xMidYMid meet">

<g transform="translate(0.000000,64.000000) scale(0.100000,-0.100000)"
fill="#000000" stroke="none">
<path d="M62 578 c-17 -17 -17 -499 0 -516 17 -17 499 -17 516 0 17 17 17 499
0 516 -17 17 -499 17 -516 0z m498 -258 l0 -240 -240 0 -240 0 0 240 0 240
240 0 240 0 0 -240z"/>
<path d="M118 330 c-3 -60 10 -78 23 -29 l6 24 4 -23 c5 -30 22 -30 30 0 l6
23 4 -24 c2 -14 10 -27 18 -29 10 -4 12 1 8 19 -4 13 -7 41 -7 62 0 53 -26 50
-36 -5 l-7 -43 -9 43 c-14 64 -36 55 -40 -18z"/>
<path d="M312 378 c-17 -17 -15 -32 8 -53 11 -10 20 -22 20 -27 0 -4 -9 -8
-20 -8 -11 0 -20 -5 -20 -11 0 -6 12 -9 28 -7 37 4 43 44 10 70 l-23 18 23 6
c12 4 22 10 22 15 0 13 -34 11 -48 -3z"/>
<path d="M386 374 c-19 -19 -21 -64 -3 -85 6 -8 23 -20 37 -26 25 -10 25 -9
27 40 4 77 -24 109 -61 71z m34 -44 c0 -22 -4 -40 -10 -40 -5 0 -10 18 -10 40
0 22 5 40 10 40 6 0 10 -18 10 -40z"/>
<path d="M467 383 c-4 -3 -7 -30 -7 -60 0 -52 0 -53 30 -53 17 0 30 5 30 10 0
6 -7 10 -15 10 -11 0 -15 12 -15 50 0 46 -7 60 -23 43z"/>
<path d="M230 346 c0 -7 5 -27 11 -45 8 -24 8 -35 -1 -46 -10 -12 -10 -15 2
-15 17 0 34 33 44 86 5 26 4 35 -5 30 -6 -4 -11 -17 -12 -29 -1 -20 -2 -19
-12 6 -11 28 -27 36 -27 13z"/>
</g>
</svg>
